<mxfile host="Electron" modified="2024-02-09T20:00:37.555Z" agent="Mozilla/5.0 (Windows NT 10.0; Win64; x64) AppleWebKit/537.36 (KHTML, like Gecko) draw.io/23.0.2 Chrome/120.0.6099.109 Electron/28.1.0 Safari/537.36" etag="dQHDEhKCeX4whntbbbgi" version="23.0.2" type="device" pages="4">
  <diagram id="tHwoj8Atl0RfazNhSvdn" name="PRINCIPAL">
    <mxGraphModel dx="1467" dy="953" grid="1" gridSize="10" guides="1" tooltips="1" connect="1" arrows="1" fold="1" page="1" pageScale="1" pageWidth="827" pageHeight="1169" math="0" shadow="0">
      <root>
        <mxCell id="0" />
        <mxCell id="1" parent="0" />
        <mxCell id="PeEIpgxy_KdDqCPe8fnx-3" value="" style="edgeStyle=orthogonalEdgeStyle;rounded=0;orthogonalLoop=1;jettySize=auto;html=1;" parent="1" source="PeEIpgxy_KdDqCPe8fnx-1" target="PeEIpgxy_KdDqCPe8fnx-2" edge="1">
          <mxGeometry relative="1" as="geometry" />
        </mxCell>
        <mxCell id="PeEIpgxy_KdDqCPe8fnx-1" value="OBTENÇÃO DE IMAGENS" style="shape=process;whiteSpace=wrap;html=1;backgroundOutline=1;" parent="1" vertex="1">
          <mxGeometry x="340" y="250" width="120" height="60" as="geometry" />
        </mxCell>
        <mxCell id="PeEIpgxy_KdDqCPe8fnx-5" value="" style="edgeStyle=orthogonalEdgeStyle;rounded=0;orthogonalLoop=1;jettySize=auto;html=1;" parent="1" source="PeEIpgxy_KdDqCPe8fnx-2" target="PeEIpgxy_KdDqCPe8fnx-4" edge="1">
          <mxGeometry relative="1" as="geometry" />
        </mxCell>
        <mxCell id="PeEIpgxy_KdDqCPe8fnx-2" value="LIMPEZA DAS IMAGENS" style="shape=process;whiteSpace=wrap;html=1;backgroundOutline=1;" parent="1" vertex="1">
          <mxGeometry x="340" y="350" width="120" height="60" as="geometry" />
        </mxCell>
        <mxCell id="n8v1O2NM5VMHv07DoePb-4" value="" style="edgeStyle=orthogonalEdgeStyle;rounded=0;orthogonalLoop=1;jettySize=auto;html=1;" parent="1" source="PeEIpgxy_KdDqCPe8fnx-4" target="fzT1RJfz3jz-w_4r0CNi-1" edge="1">
          <mxGeometry relative="1" as="geometry" />
        </mxCell>
        <mxCell id="PeEIpgxy_KdDqCPe8fnx-4" value="ANOTAÇÃO DAS IMAGENS" style="shape=process;whiteSpace=wrap;html=1;backgroundOutline=1;" parent="1" vertex="1">
          <mxGeometry x="340" y="450" width="120" height="60" as="geometry" />
        </mxCell>
        <mxCell id="fvQBK6gp58vxKmFjvZ56-8" value="" style="edgeStyle=orthogonalEdgeStyle;rounded=0;orthogonalLoop=1;jettySize=auto;html=1;" edge="1" parent="1" source="PeEIpgxy_KdDqCPe8fnx-6" target="fvQBK6gp58vxKmFjvZ56-5">
          <mxGeometry relative="1" as="geometry" />
        </mxCell>
        <mxCell id="fvQBK6gp58vxKmFjvZ56-11" value="" style="edgeStyle=orthogonalEdgeStyle;rounded=0;orthogonalLoop=1;jettySize=auto;html=1;" edge="1" parent="1" source="PeEIpgxy_KdDqCPe8fnx-6" target="fvQBK6gp58vxKmFjvZ56-10">
          <mxGeometry relative="1" as="geometry" />
        </mxCell>
        <mxCell id="PeEIpgxy_KdDqCPe8fnx-6" value="DATA AUGMENTATION" style="shape=process;whiteSpace=wrap;html=1;backgroundOutline=1;" parent="1" vertex="1">
          <mxGeometry x="340" y="1130" width="120" height="60" as="geometry" />
        </mxCell>
        <mxCell id="PeEIpgxy_KdDqCPe8fnx-11" value="" style="edgeStyle=orthogonalEdgeStyle;rounded=0;orthogonalLoop=1;jettySize=auto;html=1;" parent="1" source="PeEIpgxy_KdDqCPe8fnx-8" target="PeEIpgxy_KdDqCPe8fnx-10" edge="1">
          <mxGeometry relative="1" as="geometry" />
        </mxCell>
        <mxCell id="PeEIpgxy_KdDqCPe8fnx-8" value="TREINAMENTO DO MODELO" style="shape=process;whiteSpace=wrap;html=1;backgroundOutline=1;" parent="1" vertex="1">
          <mxGeometry x="340" y="1390" width="120" height="60" as="geometry" />
        </mxCell>
        <mxCell id="PeEIpgxy_KdDqCPe8fnx-10" value="AVALIAÇÃO DO MODELO" style="shape=process;whiteSpace=wrap;html=1;backgroundOutline=1;" parent="1" vertex="1">
          <mxGeometry x="340" y="1490" width="120" height="60" as="geometry" />
        </mxCell>
        <mxCell id="o0wYMWdM6YAAbvnrwkk3-2" value="" style="edgeStyle=orthogonalEdgeStyle;rounded=0;orthogonalLoop=1;jettySize=auto;html=1;" edge="1" parent="1" source="fzT1RJfz3jz-w_4r0CNi-1" target="o0wYMWdM6YAAbvnrwkk3-1">
          <mxGeometry relative="1" as="geometry" />
        </mxCell>
        <mxCell id="fzT1RJfz3jz-w_4r0CNi-1" value="DATASET ANOTADO" style="shape=cylinder3;whiteSpace=wrap;html=1;boundedLbl=1;backgroundOutline=1;size=15;" parent="1" vertex="1">
          <mxGeometry x="330" y="540" width="140" height="80" as="geometry" />
        </mxCell>
        <mxCell id="o0wYMWdM6YAAbvnrwkk3-4" value="" style="edgeStyle=orthogonalEdgeStyle;rounded=0;orthogonalLoop=1;jettySize=auto;html=1;" edge="1" parent="1" source="o0wYMWdM6YAAbvnrwkk3-1" target="o0wYMWdM6YAAbvnrwkk3-3">
          <mxGeometry relative="1" as="geometry" />
        </mxCell>
        <mxCell id="4VHCeni-vEZ2IeYnm4K_-7" value="&lt;span style=&quot;background-color: rgb(153, 255, 153);&quot;&gt;&lt;font color=&quot;#000000&quot; style=&quot;font-size: 15px;&quot;&gt;SIM&lt;/font&gt;&lt;/span&gt;" style="edgeLabel;html=1;align=center;verticalAlign=middle;resizable=0;points=[];" vertex="1" connectable="0" parent="o0wYMWdM6YAAbvnrwkk3-4">
          <mxGeometry x="-0.5719" y="2" relative="1" as="geometry">
            <mxPoint as="offset" />
          </mxGeometry>
        </mxCell>
        <mxCell id="4VHCeni-vEZ2IeYnm4K_-5" value="" style="edgeStyle=orthogonalEdgeStyle;rounded=0;orthogonalLoop=1;jettySize=auto;html=1;" edge="1" parent="1" source="o0wYMWdM6YAAbvnrwkk3-1" target="4VHCeni-vEZ2IeYnm4K_-4">
          <mxGeometry relative="1" as="geometry" />
        </mxCell>
        <mxCell id="4VHCeni-vEZ2IeYnm4K_-8" value="&lt;span style=&quot;background-color: rgb(255, 51, 51);&quot;&gt;&lt;font style=&quot;font-size: 15px;&quot;&gt;NÃO&lt;/font&gt;&lt;/span&gt;" style="edgeLabel;html=1;align=center;verticalAlign=middle;resizable=0;points=[];" vertex="1" connectable="0" parent="4VHCeni-vEZ2IeYnm4K_-5">
          <mxGeometry x="-0.2235" y="-1" relative="1" as="geometry">
            <mxPoint as="offset" />
          </mxGeometry>
        </mxCell>
        <mxCell id="o0wYMWdM6YAAbvnrwkk3-1" value="O DATASET SERÁ&lt;br&gt;INTEGRADO A UM&lt;br&gt;DATASET MAIOR?" style="rhombus;whiteSpace=wrap;html=1;" vertex="1" parent="1">
          <mxGeometry x="305" y="670" width="190" height="140" as="geometry" />
        </mxCell>
        <mxCell id="o0wYMWdM6YAAbvnrwkk3-3" value="RODAR O SCRIPT INTEGRAR.PY" style="shape=process;whiteSpace=wrap;html=1;backgroundOutline=1;" vertex="1" parent="1">
          <mxGeometry x="100" y="830" width="120" height="60" as="geometry" />
        </mxCell>
        <mxCell id="4VHCeni-vEZ2IeYnm4K_-9" value="" style="edgeStyle=orthogonalEdgeStyle;rounded=0;orthogonalLoop=1;jettySize=auto;html=1;" edge="1" parent="1" source="4VHCeni-vEZ2IeYnm4K_-4" target="PeEIpgxy_KdDqCPe8fnx-6">
          <mxGeometry relative="1" as="geometry" />
        </mxCell>
        <mxCell id="4VHCeni-vEZ2IeYnm4K_-4" value="DATASET PRONTO" style="shape=cylinder3;whiteSpace=wrap;html=1;boundedLbl=1;backgroundOutline=1;size=15;" vertex="1" parent="1">
          <mxGeometry x="330" y="980" width="140" height="80" as="geometry" />
        </mxCell>
        <mxCell id="4VHCeni-vEZ2IeYnm4K_-6" style="edgeStyle=orthogonalEdgeStyle;rounded=0;orthogonalLoop=1;jettySize=auto;html=1;exitX=0.5;exitY=1;exitDx=0;exitDy=0;entryX=0;entryY=0.5;entryDx=0;entryDy=0;entryPerimeter=0;" edge="1" parent="1" source="o0wYMWdM6YAAbvnrwkk3-3" target="4VHCeni-vEZ2IeYnm4K_-4">
          <mxGeometry relative="1" as="geometry" />
        </mxCell>
        <mxCell id="fvQBK6gp58vxKmFjvZ56-9" value="" style="edgeStyle=orthogonalEdgeStyle;rounded=0;orthogonalLoop=1;jettySize=auto;html=1;" edge="1" parent="1" source="fvQBK6gp58vxKmFjvZ56-5" target="PeEIpgxy_KdDqCPe8fnx-8">
          <mxGeometry relative="1" as="geometry" />
        </mxCell>
        <mxCell id="fvQBK6gp58vxKmFjvZ56-5" value="DATASET AUMENTADO" style="shape=cylinder3;whiteSpace=wrap;html=1;boundedLbl=1;backgroundOutline=1;size=15;" vertex="1" parent="1">
          <mxGeometry x="340" y="1250" width="120" height="80" as="geometry" />
        </mxCell>
        <mxCell id="fvQBK6gp58vxKmFjvZ56-10" value="" style="whiteSpace=wrap;html=1;strokeWidth=3;dashed=1;" vertex="1" parent="1">
          <mxGeometry x="530" y="1040" width="160" height="240" as="geometry" />
        </mxCell>
        <mxCell id="VnwdDuW2KjXSPLi-BKYs-1" value="RODAR&lt;br&gt;AUGMENT.PY" style="shape=process;whiteSpace=wrap;html=1;backgroundOutline=1;" vertex="1" parent="1">
          <mxGeometry x="550" y="1205" width="120" height="60" as="geometry" />
        </mxCell>
        <mxCell id="VnwdDuW2KjXSPLi-BKYs-3" style="edgeStyle=orthogonalEdgeStyle;rounded=0;orthogonalLoop=1;jettySize=auto;html=1;exitX=0.5;exitY=1;exitDx=0;exitDy=0;entryX=0.5;entryY=0;entryDx=0;entryDy=0;" edge="1" parent="1" source="VnwdDuW2KjXSPLi-BKYs-2" target="VnwdDuW2KjXSPLi-BKYs-1">
          <mxGeometry relative="1" as="geometry" />
        </mxCell>
        <mxCell id="VnwdDuW2KjXSPLi-BKYs-2" value="DEFINIR MODIFICAÇÕES DE INTERESSE DENTRO DO AUGMENT.PY" style="shape=process;whiteSpace=wrap;html=1;backgroundOutline=1;" vertex="1" parent="1">
          <mxGeometry x="545" y="1055" width="130" height="100" as="geometry" />
        </mxCell>
      </root>
    </mxGraphModel>
  </diagram>
  <diagram id="cBKTmfp84tM0quE1aTS5" name="OBTENÇÃO">
    <mxGraphModel dx="1760" dy="1144" grid="1" gridSize="10" guides="1" tooltips="1" connect="1" arrows="1" fold="1" page="1" pageScale="1" pageWidth="827" pageHeight="1169" math="0" shadow="0">
      <root>
        <mxCell id="0" />
        <mxCell id="1" parent="0" />
        <mxCell id="lxdRD9t4SNP5Dxk3JwIM-22" value="" style="edgeStyle=orthogonalEdgeStyle;rounded=0;orthogonalLoop=1;jettySize=auto;html=1;" parent="1" source="ty2d-KbzChD9vWmRTcyN-1" target="lxdRD9t4SNP5Dxk3JwIM-1" edge="1">
          <mxGeometry relative="1" as="geometry" />
        </mxCell>
        <mxCell id="ty2d-KbzChD9vWmRTcyN-1" value="OBTENÇÃO DAS IMAGENS" style="rounded=1;whiteSpace=wrap;html=1;arcSize=40;" parent="1" vertex="1">
          <mxGeometry x="136.5" y="50" width="120" height="60" as="geometry" />
        </mxCell>
        <mxCell id="lxdRD9t4SNP5Dxk3JwIM-8" value="" style="edgeStyle=orthogonalEdgeStyle;rounded=0;orthogonalLoop=1;jettySize=auto;html=1;" parent="1" source="lxdRD9t4SNP5Dxk3JwIM-1" target="lxdRD9t4SNP5Dxk3JwIM-7" edge="1">
          <mxGeometry relative="1" as="geometry" />
        </mxCell>
        <mxCell id="lxdRD9t4SNP5Dxk3JwIM-1" value="PESQUISA PRELIMINAR DOS TERMOS A SEREM BUSCADOS" style="rounded=0;whiteSpace=wrap;html=1;" parent="1" vertex="1">
          <mxGeometry x="124.75" y="170" width="143.5" height="80" as="geometry" />
        </mxCell>
        <mxCell id="lxdRD9t4SNP5Dxk3JwIM-12" value="" style="edgeStyle=orthogonalEdgeStyle;rounded=0;orthogonalLoop=1;jettySize=auto;html=1;" parent="1" source="lxdRD9t4SNP5Dxk3JwIM-7" target="lxdRD9t4SNP5Dxk3JwIM-11" edge="1">
          <mxGeometry relative="1" as="geometry" />
        </mxCell>
        <mxCell id="lxdRD9t4SNP5Dxk3JwIM-7" value="&lt;br&gt;&lt;span style=&quot;color: rgb(0, 0, 0); font-family: Helvetica; font-size: 12px; font-style: normal; font-variant-ligatures: normal; font-variant-caps: normal; font-weight: 400; letter-spacing: normal; orphans: 2; text-align: center; text-indent: 0px; text-transform: none; widows: 2; word-spacing: 0px; -webkit-text-stroke-width: 0px; background-color: rgb(251, 251, 251); text-decoration-thickness: initial; text-decoration-style: initial; text-decoration-color: initial; float: none; display: inline !important;&quot;&gt;CRIAÇÃO DOS TXT COM OS TERMOS&lt;/span&gt;" style="shape=document;whiteSpace=wrap;html=1;boundedLbl=1;rounded=0;" parent="1" vertex="1">
          <mxGeometry x="136.5" y="300" width="120" height="80" as="geometry" />
        </mxCell>
        <mxCell id="lxdRD9t4SNP5Dxk3JwIM-14" value="" style="edgeStyle=orthogonalEdgeStyle;rounded=0;orthogonalLoop=1;jettySize=auto;html=1;" parent="1" source="lxdRD9t4SNP5Dxk3JwIM-11" target="lxdRD9t4SNP5Dxk3JwIM-13" edge="1">
          <mxGeometry relative="1" as="geometry" />
        </mxCell>
        <mxCell id="lxdRD9t4SNP5Dxk3JwIM-11" value="DATASCRAPPING DOS TERMOS" style="shape=parallelogram;perimeter=parallelogramPerimeter;whiteSpace=wrap;html=1;fixedSize=1;" parent="1" vertex="1">
          <mxGeometry x="107" y="440" width="179" height="60" as="geometry" />
        </mxCell>
        <mxCell id="lxdRD9t4SNP5Dxk3JwIM-16" value="" style="edgeStyle=orthogonalEdgeStyle;rounded=0;orthogonalLoop=1;jettySize=auto;html=1;" parent="1" source="lxdRD9t4SNP5Dxk3JwIM-13" target="lxdRD9t4SNP5Dxk3JwIM-15" edge="1">
          <mxGeometry relative="1" as="geometry" />
        </mxCell>
        <mxCell id="Tr28MDd9mMCmVpMxfBuY-7" value="" style="edgeStyle=orthogonalEdgeStyle;rounded=0;orthogonalLoop=1;jettySize=auto;html=1;entryX=0;entryY=0.5;entryDx=0;entryDy=0;" parent="1" source="lxdRD9t4SNP5Dxk3JwIM-13" target="Tr28MDd9mMCmVpMxfBuY-6" edge="1">
          <mxGeometry relative="1" as="geometry" />
        </mxCell>
        <mxCell id="lxdRD9t4SNP5Dxk3JwIM-13" value="DATASCRAPPER.PY" style="shape=process;whiteSpace=wrap;html=1;backgroundOutline=1;" parent="1" vertex="1">
          <mxGeometry x="113.5" y="560" width="166" height="60" as="geometry" />
        </mxCell>
        <mxCell id="lxdRD9t4SNP5Dxk3JwIM-18" value="" style="edgeStyle=orthogonalEdgeStyle;rounded=0;orthogonalLoop=1;jettySize=auto;html=1;" parent="1" source="lxdRD9t4SNP5Dxk3JwIM-15" target="lxdRD9t4SNP5Dxk3JwIM-17" edge="1">
          <mxGeometry relative="1" as="geometry" />
        </mxCell>
        <mxCell id="lxdRD9t4SNP5Dxk3JwIM-15" value="ZIPS COM AS IMAGENS BAIXADAS" style="shape=document;whiteSpace=wrap;html=1;boundedLbl=1;" parent="1" vertex="1">
          <mxGeometry x="136.5" y="690" width="120" height="80" as="geometry" />
        </mxCell>
        <mxCell id="lxdRD9t4SNP5Dxk3JwIM-21" value="" style="edgeStyle=orthogonalEdgeStyle;rounded=0;orthogonalLoop=1;jettySize=auto;html=1;" parent="1" source="lxdRD9t4SNP5Dxk3JwIM-17" target="lxdRD9t4SNP5Dxk3JwIM-19" edge="1">
          <mxGeometry relative="1" as="geometry" />
        </mxCell>
        <mxCell id="lxdRD9t4SNP5Dxk3JwIM-17" value="&lt;span style=&quot;color: rgb(0, 0, 0); font-family: Helvetica; font-size: 12px; font-style: normal; font-variant-ligatures: normal; font-variant-caps: normal; font-weight: 400; letter-spacing: normal; orphans: 2; text-align: center; text-indent: 0px; text-transform: none; widows: 2; word-spacing: 0px; -webkit-text-stroke-width: 0px; background-color: rgb(251, 251, 251); text-decoration-thickness: initial; text-decoration-style: initial; text-decoration-color: initial; float: none; display: inline !important;&quot;&gt;DESCOMPACTAR OS ZIPS BAIXADOS&lt;/span&gt;" style="shape=parallelogram;perimeter=parallelogramPerimeter;whiteSpace=wrap;html=1;fixedSize=1;" parent="1" vertex="1">
          <mxGeometry x="100" y="850" width="193" height="70" as="geometry" />
        </mxCell>
        <mxCell id="lxdRD9t4SNP5Dxk3JwIM-19" value="DATASET BRUTO" style="shape=cylinder3;whiteSpace=wrap;html=1;boundedLbl=1;backgroundOutline=1;size=15;" parent="1" vertex="1">
          <mxGeometry x="136.5" y="990" width="120" height="80" as="geometry" />
        </mxCell>
        <mxCell id="Tr28MDd9mMCmVpMxfBuY-6" value="" style="rounded=0;whiteSpace=wrap;html=1;dashed=1;strokeWidth=2;" parent="1" vertex="1">
          <mxGeometry x="340" y="420" width="170" height="340" as="geometry" />
        </mxCell>
        <mxCell id="lxdRD9t4SNP5Dxk3JwIM-24" value="&lt;h1&gt;&lt;font style=&quot;font-size: 36px;&quot;&gt;OBTENÇÃO&lt;/font&gt;&lt;/h1&gt;&lt;p&gt;&lt;font style=&quot;font-size: 16px;&quot;&gt;Esta etapa é responsável pela obtenção do dataset bruto.&lt;/font&gt;&lt;/p&gt;&lt;p&gt;&lt;font size=&quot;3&quot;&gt;O processo se dá realizando uma pesquisa preliminar sobre os termos e adicionando os termos que serão baixados em um txt ou diretamente no script de Data Scrapping.&lt;/font&gt;&lt;/p&gt;&lt;p&gt;&lt;font size=&quot;3&quot;&gt;Após essa etapa um script para realizar o Data Scrapping destes termos de busca é utilizado, e assim as imagens são salvas dentro de diversos Zips salvos em uma pasta com um nome definido para a classe&amp;nbsp;&lt;/font&gt;&lt;/p&gt;" style="text;html=1;strokeColor=none;fillColor=none;spacing=5;spacingTop=-20;whiteSpace=wrap;overflow=hidden;rounded=0;" parent="1" vertex="1">
          <mxGeometry x="400" y="50" width="400" height="300" as="geometry" />
        </mxCell>
        <mxCell id="Tr28MDd9mMCmVpMxfBuY-3" value="" style="edgeStyle=orthogonalEdgeStyle;rounded=0;orthogonalLoop=1;jettySize=auto;html=1;" parent="1" source="Tr28MDd9mMCmVpMxfBuY-1" target="Tr28MDd9mMCmVpMxfBuY-2" edge="1">
          <mxGeometry relative="1" as="geometry" />
        </mxCell>
        <mxCell id="Tr28MDd9mMCmVpMxfBuY-1" value="DETERMINAR OS TERMOS OU LINKS A SEREM BUSCADOS" style="shape=process;whiteSpace=wrap;html=1;backgroundOutline=1;" parent="1" vertex="1">
          <mxGeometry x="355" y="440" width="140" height="70" as="geometry" />
        </mxCell>
        <mxCell id="Tr28MDd9mMCmVpMxfBuY-5" value="" style="edgeStyle=orthogonalEdgeStyle;rounded=0;orthogonalLoop=1;jettySize=auto;html=1;" parent="1" source="Tr28MDd9mMCmVpMxfBuY-2" target="Tr28MDd9mMCmVpMxfBuY-4" edge="1">
          <mxGeometry relative="1" as="geometry" />
        </mxCell>
        <mxCell id="Tr28MDd9mMCmVpMxfBuY-2" value="BAIXAR IMAGENS DA PAGINA EM ZIP" style="shape=process;whiteSpace=wrap;html=1;backgroundOutline=1;" parent="1" vertex="1">
          <mxGeometry x="355" y="545" width="140" height="75" as="geometry" />
        </mxCell>
        <mxCell id="Tr28MDd9mMCmVpMxfBuY-4" value="MOVER OS ARQUIVOS ZIPS BAIXADOS PARA A PASTA DA CLASSE NO DIRETORIO" style="shape=process;whiteSpace=wrap;html=1;backgroundOutline=1;" parent="1" vertex="1">
          <mxGeometry x="355" y="650" width="140" height="90" as="geometry" />
        </mxCell>
      </root>
    </mxGraphModel>
  </diagram>
  <diagram id="EpJH2CjuSi5yNXC7c45t" name="LIMPEZA">
    <mxGraphModel dx="1257" dy="817" grid="1" gridSize="10" guides="1" tooltips="1" connect="1" arrows="1" fold="1" page="1" pageScale="1" pageWidth="827" pageHeight="1169" math="0" shadow="0">
      <root>
        <mxCell id="0" />
        <mxCell id="1" parent="0" />
        <mxCell id="akuBbNQ7ipG5AoJOgz2R-8" value="" style="rounded=0;whiteSpace=wrap;html=1;dashed=1;strokeWidth=2;" parent="1" vertex="1">
          <mxGeometry x="654" y="515" width="160" height="190" as="geometry" />
        </mxCell>
        <mxCell id="akuBbNQ7ipG5AoJOgz2R-4" value="" style="rounded=0;whiteSpace=wrap;html=1;dashed=1;strokeWidth=2;" parent="1" vertex="1">
          <mxGeometry x="654" y="115" width="160" height="370" as="geometry" />
        </mxCell>
        <mxCell id="5agqHPzcAXzU3834gH2f-1" value="REMOÇÃO DE FORMATOS INVALIDOS" style="shape=process;whiteSpace=wrap;html=1;backgroundOutline=1;" parent="1" vertex="1">
          <mxGeometry x="674" y="135" width="120" height="60" as="geometry" />
        </mxCell>
        <mxCell id="5agqHPzcAXzU3834gH2f-3" value="REMOÇÃO DE IMAGENS DUPLICADAS" style="shape=process;whiteSpace=wrap;html=1;backgroundOutline=1;" parent="1" vertex="1">
          <mxGeometry x="674" y="405" width="120" height="60" as="geometry" />
        </mxCell>
        <mxCell id="iqtM0ca4FpaMbccm0vFZ-1" value="REMOÇÃO DE IMAGENS MUITO PEQUENAS&amp;nbsp;" style="shape=process;whiteSpace=wrap;html=1;backgroundOutline=1;" parent="1" vertex="1">
          <mxGeometry x="674" y="225" width="120" height="60" as="geometry" />
        </mxCell>
        <mxCell id="hD74OJc5P1sH4-vkDqlT-1" value="PADRONIZAÇÃO DE ALTURA DAS IMAGENS" style="shape=process;whiteSpace=wrap;html=1;backgroundOutline=1;" parent="1" vertex="1">
          <mxGeometry x="674" y="535" width="120" height="60" as="geometry" />
        </mxCell>
        <mxCell id="hD74OJc5P1sH4-vkDqlT-3" value="PADRONIZAÇÃO DOS FORMATOS" style="shape=process;whiteSpace=wrap;html=1;backgroundOutline=1;" parent="1" vertex="1">
          <mxGeometry x="674" y="625" width="120" height="60" as="geometry" />
        </mxCell>
        <mxCell id="akuBbNQ7ipG5AoJOgz2R-1" value="REMOVER IMAGENS EM PRETO E BRANCO" style="shape=process;whiteSpace=wrap;html=1;backgroundOutline=1;" parent="1" vertex="1">
          <mxGeometry x="674" y="315" width="120" height="60" as="geometry" />
        </mxCell>
        <mxCell id="_IbGMbi8YzkPeru4CZeQ-19" value="" style="edgeStyle=orthogonalEdgeStyle;rounded=0;orthogonalLoop=1;jettySize=auto;html=1;" parent="1" source="G2dwIzapFU2EQz_6iJHl-1" target="_IbGMbi8YzkPeru4CZeQ-2" edge="1">
          <mxGeometry relative="1" as="geometry" />
        </mxCell>
        <mxCell id="G2dwIzapFU2EQz_6iJHl-1" value="LIMPEZA" style="rounded=1;whiteSpace=wrap;html=1;" parent="1" vertex="1">
          <mxGeometry x="444" y="30" width="120" height="60" as="geometry" />
        </mxCell>
        <mxCell id="_IbGMbi8YzkPeru4CZeQ-4" value="" style="edgeStyle=orthogonalEdgeStyle;rounded=0;orthogonalLoop=1;jettySize=auto;html=1;" parent="1" source="_IbGMbi8YzkPeru4CZeQ-2" target="_IbGMbi8YzkPeru4CZeQ-3" edge="1">
          <mxGeometry relative="1" as="geometry" />
        </mxCell>
        <mxCell id="_IbGMbi8YzkPeru4CZeQ-2" value="LIMPEZA DO DATASET" style="shape=parallelogram;perimeter=parallelogramPerimeter;whiteSpace=wrap;html=1;fixedSize=1;" parent="1" vertex="1">
          <mxGeometry x="444" y="150" width="120" height="60" as="geometry" />
        </mxCell>
        <mxCell id="_IbGMbi8YzkPeru4CZeQ-6" value="" style="edgeStyle=orthogonalEdgeStyle;rounded=0;orthogonalLoop=1;jettySize=auto;html=1;" parent="1" source="_IbGMbi8YzkPeru4CZeQ-3" target="_IbGMbi8YzkPeru4CZeQ-5" edge="1">
          <mxGeometry relative="1" as="geometry" />
        </mxCell>
        <mxCell id="_IbGMbi8YzkPeru4CZeQ-20" value="" style="edgeStyle=orthogonalEdgeStyle;rounded=0;orthogonalLoop=1;jettySize=auto;html=1;entryX=0;entryY=0.5;entryDx=0;entryDy=0;" parent="1" source="_IbGMbi8YzkPeru4CZeQ-3" target="akuBbNQ7ipG5AoJOgz2R-4" edge="1">
          <mxGeometry relative="1" as="geometry" />
        </mxCell>
        <mxCell id="_IbGMbi8YzkPeru4CZeQ-3" value="LIMPEZA.PY" style="shape=process;whiteSpace=wrap;html=1;backgroundOutline=1;" parent="1" vertex="1">
          <mxGeometry x="444" y="270" width="120" height="60" as="geometry" />
        </mxCell>
        <mxCell id="_IbGMbi8YzkPeru4CZeQ-8" value="" style="edgeStyle=orthogonalEdgeStyle;rounded=0;orthogonalLoop=1;jettySize=auto;html=1;" parent="1" source="_IbGMbi8YzkPeru4CZeQ-5" target="_IbGMbi8YzkPeru4CZeQ-7" edge="1">
          <mxGeometry relative="1" as="geometry" />
        </mxCell>
        <mxCell id="_IbGMbi8YzkPeru4CZeQ-5" value="PADRONIZAÇÃO DOS DATASETS" style="shape=parallelogram;perimeter=parallelogramPerimeter;whiteSpace=wrap;html=1;fixedSize=1;" parent="1" vertex="1">
          <mxGeometry x="424" y="410" width="160" height="80" as="geometry" />
        </mxCell>
        <mxCell id="_IbGMbi8YzkPeru4CZeQ-10" value="" style="edgeStyle=orthogonalEdgeStyle;rounded=0;orthogonalLoop=1;jettySize=auto;html=1;" parent="1" source="_IbGMbi8YzkPeru4CZeQ-7" target="_IbGMbi8YzkPeru4CZeQ-9" edge="1">
          <mxGeometry relative="1" as="geometry" />
        </mxCell>
        <mxCell id="_IbGMbi8YzkPeru4CZeQ-21" value="" style="edgeStyle=orthogonalEdgeStyle;rounded=0;orthogonalLoop=1;jettySize=auto;html=1;entryX=0;entryY=0.5;entryDx=0;entryDy=0;" parent="1" source="_IbGMbi8YzkPeru4CZeQ-7" target="akuBbNQ7ipG5AoJOgz2R-8" edge="1">
          <mxGeometry relative="1" as="geometry" />
        </mxCell>
        <mxCell id="_IbGMbi8YzkPeru4CZeQ-7" value="PADRONIZA.PY" style="shape=process;whiteSpace=wrap;html=1;backgroundOutline=1;" parent="1" vertex="1">
          <mxGeometry x="444" y="580" width="120" height="60" as="geometry" />
        </mxCell>
        <mxCell id="_IbGMbi8YzkPeru4CZeQ-14" value="" style="edgeStyle=orthogonalEdgeStyle;rounded=0;orthogonalLoop=1;jettySize=auto;html=1;" parent="1" source="_IbGMbi8YzkPeru4CZeQ-9" target="_IbGMbi8YzkPeru4CZeQ-13" edge="1">
          <mxGeometry relative="1" as="geometry" />
        </mxCell>
        <mxCell id="_IbGMbi8YzkPeru4CZeQ-9" value="FILTRO DE INSPEÇÃO VISUAL" style="shape=parallelogram;perimeter=parallelogramPerimeter;whiteSpace=wrap;html=1;fixedSize=1;" parent="1" vertex="1">
          <mxGeometry x="419" y="720" width="170" height="70" as="geometry" />
        </mxCell>
        <mxCell id="_IbGMbi8YzkPeru4CZeQ-16" value="" style="edgeStyle=orthogonalEdgeStyle;rounded=0;orthogonalLoop=1;jettySize=auto;html=1;" parent="1" source="_IbGMbi8YzkPeru4CZeQ-13" target="_IbGMbi8YzkPeru4CZeQ-15" edge="1">
          <mxGeometry relative="1" as="geometry" />
        </mxCell>
        <mxCell id="_IbGMbi8YzkPeru4CZeQ-13" value="RENOMEAR AS IMAGENS&lt;br&gt;PARA UM PADRÃO" style="shape=parallelogram;perimeter=parallelogramPerimeter;whiteSpace=wrap;html=1;fixedSize=1;" parent="1" vertex="1">
          <mxGeometry x="414" y="830" width="180" height="65" as="geometry" />
        </mxCell>
        <mxCell id="_IbGMbi8YzkPeru4CZeQ-18" value="" style="edgeStyle=orthogonalEdgeStyle;rounded=0;orthogonalLoop=1;jettySize=auto;html=1;" parent="1" source="_IbGMbi8YzkPeru4CZeQ-15" target="_IbGMbi8YzkPeru4CZeQ-17" edge="1">
          <mxGeometry relative="1" as="geometry" />
        </mxCell>
        <mxCell id="XcEOLS8NV6WscdHutzBD-3" style="edgeStyle=orthogonalEdgeStyle;rounded=0;orthogonalLoop=1;jettySize=auto;html=1;exitX=1;exitY=0.5;exitDx=0;exitDy=0;entryX=0;entryY=0.5;entryDx=0;entryDy=0;" parent="1" source="_IbGMbi8YzkPeru4CZeQ-15" target="XcEOLS8NV6WscdHutzBD-2" edge="1">
          <mxGeometry relative="1" as="geometry" />
        </mxCell>
        <mxCell id="_IbGMbi8YzkPeru4CZeQ-15" value="RENOMEAR.PY" style="shape=process;whiteSpace=wrap;html=1;backgroundOutline=1;" parent="1" vertex="1">
          <mxGeometry x="444" y="940" width="120" height="60" as="geometry" />
        </mxCell>
        <mxCell id="XcEOLS8NV6WscdHutzBD-2" value="" style="rounded=0;whiteSpace=wrap;html=1;dashed=1;strokeWidth=2;" parent="1" vertex="1">
          <mxGeometry x="610" y="910" width="190" height="120" as="geometry" />
        </mxCell>
        <mxCell id="_IbGMbi8YzkPeru4CZeQ-17" value="DATASET LIMPO" style="shape=cylinder3;whiteSpace=wrap;html=1;boundedLbl=1;backgroundOutline=1;size=15;" parent="1" vertex="1">
          <mxGeometry x="449" y="1042.5" width="110" height="80" as="geometry" />
        </mxCell>
        <mxCell id="XcEOLS8NV6WscdHutzBD-1" value="RENOMEAR AS IMAGENS PELO INDEX DELA + UM PREFIXO DA CLASSE&lt;br&gt;(&quot;NUMERO_PREFIXO&quot;)" style="shape=process;whiteSpace=wrap;html=1;backgroundOutline=1;" parent="1" vertex="1">
          <mxGeometry x="620" y="920" width="170" height="100" as="geometry" />
        </mxCell>
        <mxCell id="XcEOLS8NV6WscdHutzBD-4" value="&lt;h1&gt;&lt;font style=&quot;font-size: 36px;&quot;&gt;LIMPEZA&lt;/font&gt;&lt;/h1&gt;&lt;p&gt;&lt;font style=&quot;font-size: 16px;&quot;&gt;Etapa responsável pela limpeza do dataset bruto obtido na etapa de OBTENÇÃO, afim de remover imagens indesejadas e padronizar tanto o formato quanto o nome das mesmas.&lt;/font&gt;&lt;/p&gt;&lt;p&gt;&lt;font size=&quot;3&quot;&gt;Todos os processos desta etapa dependem apenas da utilização de scripts já preparados, com exceção da etapa de filtragem visual, que é um processo manual de revisão dos resultados, com a finalidade de garantir que nenhuma imagem indesejada ou comprometida tenha passado pelos scripts e seja integrada ao dataset.&lt;/font&gt;&amp;nbsp;&lt;/p&gt;" style="text;html=1;strokeColor=none;fillColor=none;spacing=5;spacingTop=-20;whiteSpace=wrap;overflow=hidden;rounded=0;" parent="1" vertex="1">
          <mxGeometry x="24" y="30" width="390" height="390" as="geometry" />
        </mxCell>
      </root>
    </mxGraphModel>
  </diagram>
  <diagram id="-7e7tq7ei57mGtEOfjry" name="ANOTAÇÃO">
    <mxGraphModel dx="3027" dy="1430" grid="1" gridSize="10" guides="1" tooltips="1" connect="1" arrows="1" fold="1" page="1" pageScale="1" pageWidth="827" pageHeight="1169" math="0" shadow="0">
      <root>
        <mxCell id="0" />
        <mxCell id="1" parent="0" />
        <mxCell id="v2dademL_siIAhkE2aLZ-6" value="" style="edgeStyle=orthogonalEdgeStyle;rounded=0;orthogonalLoop=1;jettySize=auto;html=1;entryX=0.5;entryY=0;entryDx=0;entryDy=0;" parent="1" source="v2dademL_siIAhkE2aLZ-3" target="EwbS1MHtnN2VmrHq04ss-2" edge="1">
          <mxGeometry relative="1" as="geometry">
            <mxPoint x="527" y="655" as="targetPoint" />
          </mxGeometry>
        </mxCell>
        <mxCell id="v2dademL_siIAhkE2aLZ-7" value="SIM" style="edgeLabel;html=1;align=center;verticalAlign=middle;resizable=0;points=[];fillColor=#FFFFFF;strokeColor=#FF2BCE;" parent="v2dademL_siIAhkE2aLZ-6" vertex="1" connectable="0">
          <mxGeometry x="-0.2667" y="-1" relative="1" as="geometry">
            <mxPoint as="offset" />
          </mxGeometry>
        </mxCell>
        <mxCell id="v2dademL_siIAhkE2aLZ-9" value="" style="edgeStyle=orthogonalEdgeStyle;rounded=0;orthogonalLoop=1;jettySize=auto;html=1;entryX=0;entryY=0.5;entryDx=0;entryDy=0;" parent="1" source="v2dademL_siIAhkE2aLZ-3" target="t92DiM8_VvQLJXaoe0ov-10" edge="1">
          <mxGeometry relative="1" as="geometry">
            <mxPoint x="697" y="495" as="targetPoint" />
          </mxGeometry>
        </mxCell>
        <mxCell id="v2dademL_siIAhkE2aLZ-10" value="NAO" style="edgeLabel;html=1;align=center;verticalAlign=middle;resizable=0;points=[];" parent="v2dademL_siIAhkE2aLZ-9" vertex="1" connectable="0">
          <mxGeometry x="-0.1368" y="-2" relative="1" as="geometry">
            <mxPoint y="-2" as="offset" />
          </mxGeometry>
        </mxCell>
        <mxCell id="v2dademL_siIAhkE2aLZ-13" value="" style="edgeStyle=orthogonalEdgeStyle;rounded=0;orthogonalLoop=1;jettySize=auto;html=1;entryX=1;entryY=0.5;entryDx=0;entryDy=0;" parent="1" source="v2dademL_siIAhkE2aLZ-3" target="t92DiM8_VvQLJXaoe0ov-11" edge="1">
          <mxGeometry relative="1" as="geometry">
            <mxPoint x="357" y="495" as="targetPoint" />
          </mxGeometry>
        </mxCell>
        <mxCell id="v2dademL_siIAhkE2aLZ-14" value="MUITOS" style="edgeLabel;html=1;align=center;verticalAlign=middle;resizable=0;points=[];" parent="v2dademL_siIAhkE2aLZ-13" vertex="1" connectable="0">
          <mxGeometry x="-0.1789" y="5" relative="1" as="geometry">
            <mxPoint y="-5" as="offset" />
          </mxGeometry>
        </mxCell>
        <mxCell id="v2dademL_siIAhkE2aLZ-3" value="BOUNDING BOXES ESTAVAM CORRETOS?" style="rhombus;whiteSpace=wrap;html=1;" parent="1" vertex="1">
          <mxGeometry x="452" y="430" width="150" height="130" as="geometry" />
        </mxCell>
        <mxCell id="v2dademL_siIAhkE2aLZ-11" style="edgeStyle=orthogonalEdgeStyle;rounded=0;orthogonalLoop=1;jettySize=auto;html=1;exitX=0.5;exitY=1;exitDx=0;exitDy=0;entryX=1;entryY=0.5;entryDx=0;entryDy=0;" parent="1" source="t92DiM8_VvQLJXaoe0ov-10" target="EwbS1MHtnN2VmrHq04ss-2" edge="1">
          <mxGeometry relative="1" as="geometry">
            <mxPoint x="757" y="525" as="sourcePoint" />
            <mxPoint x="597" y="695" as="targetPoint" />
            <Array as="points">
              <mxPoint x="752" y="695" />
            </Array>
          </mxGeometry>
        </mxCell>
        <mxCell id="v2dademL_siIAhkE2aLZ-15" style="edgeStyle=orthogonalEdgeStyle;rounded=0;orthogonalLoop=1;jettySize=auto;html=1;exitX=0.456;exitY=1.029;exitDx=0;exitDy=0;entryX=0;entryY=0.5;entryDx=0;entryDy=0;exitPerimeter=0;" parent="1" source="t92DiM8_VvQLJXaoe0ov-11" target="EwbS1MHtnN2VmrHq04ss-2" edge="1">
          <mxGeometry relative="1" as="geometry">
            <mxPoint x="282" y="532.5" as="sourcePoint" />
            <mxPoint x="457" y="695" as="targetPoint" />
            <Array as="points">
              <mxPoint x="270" y="695" />
              <mxPoint x="307" y="695" />
            </Array>
          </mxGeometry>
        </mxCell>
        <mxCell id="t92DiM8_VvQLJXaoe0ov-4" value="" style="edgeStyle=orthogonalEdgeStyle;rounded=0;orthogonalLoop=1;jettySize=auto;html=1;" parent="1" source="1_IfH3nMzva2xt_vciwT-3" target="t92DiM8_VvQLJXaoe0ov-1" edge="1">
          <mxGeometry relative="1" as="geometry" />
        </mxCell>
        <mxCell id="1_IfH3nMzva2xt_vciwT-3" value="ANOTAÇÃO" style="rounded=1;whiteSpace=wrap;html=1;" parent="1" vertex="1">
          <mxGeometry x="467" y="20" width="120" height="60" as="geometry" />
        </mxCell>
        <mxCell id="t92DiM8_VvQLJXaoe0ov-3" value="" style="edgeStyle=orthogonalEdgeStyle;rounded=0;orthogonalLoop=1;jettySize=auto;html=1;" parent="1" source="t92DiM8_VvQLJXaoe0ov-1" target="t92DiM8_VvQLJXaoe0ov-2" edge="1">
          <mxGeometry relative="1" as="geometry" />
        </mxCell>
        <mxCell id="t92DiM8_VvQLJXaoe0ov-1" value="OBTER BOUNDING&lt;br&gt;BOXES PELO YOLO" style="shape=parallelogram;perimeter=parallelogramPerimeter;whiteSpace=wrap;html=1;fixedSize=1;" parent="1" vertex="1">
          <mxGeometry x="447" y="110" width="160" height="60" as="geometry" />
        </mxCell>
        <mxCell id="t92DiM8_VvQLJXaoe0ov-7" value="" style="edgeStyle=orthogonalEdgeStyle;rounded=0;orthogonalLoop=1;jettySize=auto;html=1;" parent="1" source="t92DiM8_VvQLJXaoe0ov-2" target="t92DiM8_VvQLJXaoe0ov-6" edge="1">
          <mxGeometry relative="1" as="geometry" />
        </mxCell>
        <mxCell id="t92DiM8_VvQLJXaoe0ov-2" value="INFERENCIAIMAGENS.BAT" style="shape=process;whiteSpace=wrap;html=1;backgroundOutline=1;" parent="1" vertex="1">
          <mxGeometry x="417" y="200" width="220" height="60" as="geometry" />
        </mxCell>
        <mxCell id="t92DiM8_VvQLJXaoe0ov-8" value="" style="edgeStyle=orthogonalEdgeStyle;rounded=0;orthogonalLoop=1;jettySize=auto;html=1;" parent="1" source="t92DiM8_VvQLJXaoe0ov-6" target="v2dademL_siIAhkE2aLZ-3" edge="1">
          <mxGeometry relative="1" as="geometry" />
        </mxCell>
        <mxCell id="t92DiM8_VvQLJXaoe0ov-6" value="AVALIAR QUALIDADE DA INFERENCIA DA YOLO" style="shape=parallelogram;perimeter=parallelogramPerimeter;whiteSpace=wrap;html=1;fixedSize=1;" parent="1" vertex="1">
          <mxGeometry x="437" y="290" width="180" height="80" as="geometry" />
        </mxCell>
        <mxCell id="t92DiM8_VvQLJXaoe0ov-10" value="RELIZAR OS&lt;br&gt;BOUNDING BOXES MANUALMENTE" style="shape=parallelogram;perimeter=parallelogramPerimeter;whiteSpace=wrap;html=1;fixedSize=1;" parent="1" vertex="1">
          <mxGeometry x="677" y="465" width="150" height="60" as="geometry" />
        </mxCell>
        <mxCell id="t92DiM8_VvQLJXaoe0ov-11" value="CORREÇÕES DOS BOUNDING BOXES" style="shape=parallelogram;perimeter=parallelogramPerimeter;whiteSpace=wrap;html=1;fixedSize=1;" parent="1" vertex="1">
          <mxGeometry x="197" y="460" width="160" height="70" as="geometry" />
        </mxCell>
        <mxCell id="4t1o3mO1h-kPXTYVTrdf-2" value="" style="edgeStyle=orthogonalEdgeStyle;rounded=0;orthogonalLoop=1;jettySize=auto;html=1;" edge="1" parent="1" source="EwbS1MHtnN2VmrHq04ss-1" target="4t1o3mO1h-kPXTYVTrdf-1">
          <mxGeometry relative="1" as="geometry" />
        </mxCell>
        <mxCell id="EwbS1MHtnN2VmrHq04ss-1" value="INCLUIR AS&lt;br&gt;ANOTAÇÕES PARA O DATASET" style="shape=parallelogram;perimeter=parallelogramPerimeter;whiteSpace=wrap;html=1;fixedSize=1;" parent="1" vertex="1">
          <mxGeometry x="447" y="770" width="160" height="80" as="geometry" />
        </mxCell>
        <mxCell id="EwbS1MHtnN2VmrHq04ss-5" value="" style="edgeStyle=orthogonalEdgeStyle;rounded=0;orthogonalLoop=1;jettySize=auto;html=1;" parent="1" source="EwbS1MHtnN2VmrHq04ss-2" target="EwbS1MHtnN2VmrHq04ss-1" edge="1">
          <mxGeometry relative="1" as="geometry" />
        </mxCell>
        <mxCell id="EwbS1MHtnN2VmrHq04ss-2" value="CRIAÇÃO DAS ANOTAÇÕES PARA AS IMAGENS" style="shape=document;whiteSpace=wrap;html=1;boundedLbl=1;" parent="1" vertex="1">
          <mxGeometry x="467" y="655" width="120" height="80" as="geometry" />
        </mxCell>
        <mxCell id="EwbS1MHtnN2VmrHq04ss-4" value="&lt;font color=&quot;#fafafa&quot;&gt;&lt;span style=&quot;font-family: Helvetica; font-size: 12px; font-style: normal; font-variant-ligatures: normal; font-variant-caps: normal; font-weight: 400; letter-spacing: normal; orphans: 2; text-align: center; text-indent: 0px; text-transform: none; widows: 2; word-spacing: 0px; -webkit-text-stroke-width: 0px; text-decoration-thickness: initial; text-decoration-style: initial; text-decoration-color: initial; float: none; display: inline !important;&quot;&gt;DATASET ANOTADO&lt;/span&gt;&lt;/font&gt;" style="shape=cylinder3;whiteSpace=wrap;html=1;boundedLbl=1;backgroundOutline=1;size=15;" parent="1" vertex="1">
          <mxGeometry x="457" y="1220" width="140" height="80" as="geometry" />
        </mxCell>
        <mxCell id="mHArOaCZrVfiltFKJhFm-1" value="&lt;h1&gt;&lt;font style=&quot;font-size: 36px;&quot;&gt;ANOTAÇÃO&lt;/font&gt;&lt;/h1&gt;&lt;p&gt;&lt;font style=&quot;font-size: 16px;&quot;&gt;Etapa responsavél pelas anotações dos &quot;labels&quot; das imagens encontradas no dataset limpo. As anotações são importantes para o treinamento da rede neural e devem ser feitas no padrão YOLO.&lt;/font&gt;&lt;/p&gt;&lt;p&gt;&lt;font style=&quot;font-size: 16px;&quot;&gt;O processo de anotação é feito incialmente atraves da yolo, rodando a inferencia no dataset com um &quot;threshold&quot; de confiança bem baixo, afim de possivelmente obter anotações proximas do necessario, diversos metodos para obter essas anotações são possivel, tanto usando a yolo padrão, quanto pré treinando um modelo pequeno para anotações mais precisas (embora ainda falhas).&lt;/font&gt;&lt;/p&gt;&lt;p&gt;&lt;font style=&quot;font-size: 16px;&quot;&gt;Com esse processo realizado, é possivel passar para a parte manual do trabalho, decidindo se as pré anotações foram boas o suficiente e retocando as anotações necessarias após uma avaliação visual dos resultados, caso necessario um retrabalho completo pode ser feito.&lt;/font&gt;&lt;/p&gt;&lt;p&gt;&lt;font style=&quot;font-size: 16px;&quot;&gt;Após essa etapa, em um diretorio especifico para esse dataset, uma pasta deve ser criada com o nome &quot;images&quot; aonde as imagens serão adicionadas e uma segunda pasta nomeada &quot;labels&quot; deve ser criada, aonde essas anotações serão inseridas.&lt;/font&gt;&lt;/p&gt;&lt;p&gt;&lt;font style=&quot;font-size: 16px;&quot;&gt;Com a etapa pronta, uma primeira versão funcional do dataset está pronta.&lt;/font&gt;&lt;/p&gt;" style="text;html=1;strokeColor=none;fillColor=none;spacing=5;spacingTop=-20;whiteSpace=wrap;overflow=hidden;rounded=0;" vertex="1" parent="1">
          <mxGeometry x="-276" y="25" width="430" height="710" as="geometry" />
        </mxCell>
        <mxCell id="4t1o3mO1h-kPXTYVTrdf-4" value="" style="edgeStyle=orthogonalEdgeStyle;rounded=0;orthogonalLoop=1;jettySize=auto;html=1;" edge="1" parent="1" source="4t1o3mO1h-kPXTYVTrdf-1" target="4t1o3mO1h-kPXTYVTrdf-3">
          <mxGeometry relative="1" as="geometry" />
        </mxCell>
        <mxCell id="4t1o3mO1h-kPXTYVTrdf-1" value="CRIAÇÃO DA PASTA &quot;labels&quot; COM AS ANOTAÇÕES CRIADAS" style="shape=document;whiteSpace=wrap;html=1;boundedLbl=1;" vertex="1" parent="1">
          <mxGeometry x="442" y="920" width="170" height="90" as="geometry" />
        </mxCell>
        <mxCell id="4t1o3mO1h-kPXTYVTrdf-6" value="" style="edgeStyle=orthogonalEdgeStyle;rounded=0;orthogonalLoop=1;jettySize=auto;html=1;" edge="1" parent="1" source="4t1o3mO1h-kPXTYVTrdf-3" target="EwbS1MHtnN2VmrHq04ss-4">
          <mxGeometry relative="1" as="geometry" />
        </mxCell>
        <mxCell id="4t1o3mO1h-kPXTYVTrdf-3" value="CRIAÇÃO DA PASTA &quot;images&quot; COM AS IMAGENS DO DATASET" style="shape=document;whiteSpace=wrap;html=1;boundedLbl=1;" vertex="1" parent="1">
          <mxGeometry x="442" y="1070" width="170" height="90" as="geometry" />
        </mxCell>
      </root>
    </mxGraphModel>
  </diagram>
</mxfile>
